<?xml version="1.0" encoding="utf-8"?>
<!-- Generator: Adobe Illustrator 18.1.1, SVG Export Plug-In . SVG Version: 6.00 Build 0)  -->
<svg version="1.1" id="Layer_1" xmlns="http://www.w3.org/2000/svg" xmlns:xlink="http://www.w3.org/1999/xlink" x="0px" y="0px"
	 viewBox="0 0 612 792" enable-background="new 0 0 612 792" xml:space="preserve">
<g>
	<g>
		<path d="M326.9,391.2c0-14-0.1-28,0.1-42c0.1-4.4-1.1-6.3-5.9-6.2c-10.8,0.3-21.7,0.2-32.5,0c-4.2-0.1-5.5,1.4-5.5,5.5
			c0.2,17.3-0.5,34.7,0.3,52c0.5,11.5,0.6,23,0.7,34.4c0,1.8,0.9,4.6-2.3,4.5c-2.6-0.1-1.9-2.7-2-4.4c-1.4-30.5-0.9-60.9-1.1-91.4
			c0-4.4,1.2-6.2,5.9-6.1c14.5,0.3,29,0.1,43.5,0.1c2.9,0,5.8-0.2,6.3,3.8c0.2,1.8,2,2,3.5,2.4c5.8,1.5,11.5,3.4,17.4,4.6
			c4.6,0.9,6.2,2.9,6.1,7.7c-0.9,27.9-1.4,55.9-2.1,83.9c-0.1,2.2,0.1,4.3,0,6.5c-0.2,4.2-1.8,5.6-5.7,4c-7.9-3.1-15.7-6.5-23.5-9.8
			c-3.1-1.3-3.2-3.9-3.2-6.7C326.9,419.9,326.9,405.6,326.9,391.2z"/>
		<path d="M307.6,460.2c-3.6,0.3-7-0.8-10.4-2.2c-1.8-0.7-3.2-1.9-3.2-4c0-2,1.3-3.1,2.9-3.6c5-1.6,6.5-4.9,6-9.9
			c-0.4-3.7,1.9-4.9,5.3-4.7c3.4,0.1,4.2,1.9,3.7,4.9c-0.9,5.4,2.8,7.7,6.7,9.7c1.9,1,4.3,1.6,4.1,4.3c-0.2,2.4-2.5,2.9-4.3,3.7
			C315.1,459.8,311.5,460.4,307.6,460.2z"/>
	</g>
	<g>
		<path fill="#D4AF37" d="M326.9,391.2c0-14-0.1-28,0.1-42c0.1-4.4-1.1-6.3-5.9-6.2c-10.8,0.3-21.7,0.2-32.5,0
			c-4.2-0.1-5.5,1.4-5.5,5.5c0.2,17.3-0.5,34.7,0.3,52c0.5,11.5,0.6,23,0.7,34.4c0,1.8,0.9,4.6-2.3,4.5c-2.6-0.1-1.9-2.7-2-4.4
			c-1.4-30.5-0.9-60.9-1.1-91.4c0-4.4,1.2-6.2,5.9-6.1c14.5,0.3,29,0.1,43.5,0.1c2.9,0,5.8-0.2,6.3,3.8c0.2,1.8,2,2,3.5,2.4
			c5.8,1.5,11.5,3.4,17.4,4.6c4.6,0.9,6.2,2.9,6.1,7.7c-0.9,27.9-1.4,55.9-2.1,83.9c-0.1,2.2,0.1,4.3,0,6.5c-0.2,4.2-1.8,5.6-5.7,4
			c-7.9-3.1-15.7-6.5-23.5-9.8c-3.1-1.3-3.2-3.9-3.2-6.7C326.9,419.9,326.9,405.6,326.9,391.2z"/>
		<path fill="#D4AF37" d="M307.6,460.2c-3.6,0.3-7-0.8-10.4-2.2c-1.8-0.7-3.2-1.9-3.2-4c0-2,1.3-3.1,2.9-3.6c5-1.6,6.5-4.9,6-9.9
			c-0.4-3.7,1.9-4.9,5.3-4.7c3.4,0.1,4.2,1.9,3.7,4.9c-0.9,5.4,2.8,7.7,6.7,9.7c1.9,1,4.3,1.6,4.1,4.3c-0.2,2.4-2.5,2.9-4.3,3.7
			C315.1,459.8,311.5,460.4,307.6,460.2z"/>
	</g>
</g>
</svg>
