<?xml version="1.0" encoding="utf-8"?>
<!-- Generator: Adobe Illustrator 18.1.1, SVG Export Plug-In . SVG Version: 6.00 Build 0)  -->
<svg version="1.1" id="Layer_1" xmlns="http://www.w3.org/2000/svg" xmlns:xlink="http://www.w3.org/1999/xlink" x="0px" y="0px"
	 viewBox="0 0 612 792" enable-background="new 0 0 612 792" xml:space="preserve">
<g>
	<path fill="#003049" d="M400.2,315.7c-2.4,2.1-4.9,4.2-7.3,6.4c-2,1.7-6.8-0.1-8.3-3.8c-2.7-6.6-6.7-12.6-7.1-20.4
		c-0.2-4.4-4.1-9.1-7.3-12.8c-2.6-3-6.2-5.4-9.1-8.2c-10.6-10.2-11.2-14.4-6.3-28.4c2.8-8,4.9-16.3,8.9-23.9c1.1-2.1-0.1-2.6-2-2.5
		c-4.6,0.2-9,1.6-12.6,3.9c-13.7,8.8-29.2,13.7-43.6,20.7c-7.1,3.5-14.3,6.6-21.6,9.5c-7.8,3-15.8,3.2-23.9,2.7
		c-2.6-0.2-5.1-1.6-7.1-3.4c-1.8-1.7-3.6-3-6.3-3.3c-3.4-0.3-3.4-2.3-1.1-4.3c3.2-2.9,7.1-4.9,11.3-5.9c6.2-1.5,12.2-3.2,18-6.3
		c6.4-3.4,14-4.5,20.3-8.7c5.4-3.6,11.8-5.7,16.8-10.1c5.2-4.4,11.7-6.6,17.2-10.5c1-0.7,2.5-0.9,3-2.7c-10.6-2.9-21.3-5.6-31.9-8.7
		c-6.3-1.8-12.8-2.6-19.1-4.3c-8.1-2.2-13.8-7.7-16-16c-0.4-1.6-2.4-2.4-1.9-4.4c7.1-2.1,13.5,1.4,20.3,2.2
		c15.2,1.9,29.8,7.1,45.4,6.5c5.3-0.2,10.4,2.4,15.7,2c1.5-0.1,3.8,0.4,4.2-1.5c0.4-2.2-2.1-2-3.5-2.7c-6.1-2.9-12.7-5-17.3-10.2
		c-2.5-2.8-4.2-5.6-3.3-10.1c0.7-3.7,1.6-3.6,4.6-2.8c6.3,1.5,11.4,5.5,17.6,7.4c12.2,3.8,24.5,7.2,36.1,12.7
		c1.4,0.7,3.2,0.4,4.8-0.4c8.3-4.1,17.5-3.4,26.3-4.4c12.8-1.5,25.6-2.1,38.3-4.8c8.4-1.8,17.3-1.3,25.9-2.5
		c8.8-1.2,17.4-3.1,26.1-4.9c11.2-2.4,22.2-5.7,34-5c9.8,0.6,19.6-1.2,29.4-3.2c9.1-1.8,18.2-3.9,27.6-4.6c2.5-0.2,5.2-0.3,6.8-2.9
		c3.7,0,8.8-1.4,10.6,0.4c1.8,1.8,0.4,6.9,0.4,10.6c0,19.3,0,38.7,0,58c-13.4,0-26.7,0.4-40.1-0.1c-10.4-0.4-20.7-2.1-31.1-2.9
		c-5.8-0.5-11.6-0.1-17.4-0.8c-6.8-0.8-13.3,3.6-15.5,10.4c-4.9,14.9-13.8,27.4-24.9,38.2c-6.7,6.5-15.6,10-23.2,15.2
		c-6.7,4.7-12.3,9.7-16.1,17.4c-3.9,8-4.1,16.9-7.5,24.9c-1.5,3.6-4.4,5.7-6.2,8.8c-1,1.7-2.4,0.5-2.6-0.4c-0.7-3.5-3.3-3.9-5.9-3.7
		c-2.7,0.2-2.7-2.6-4.5-3.4c-0.4-0.3-0.7-0.8-0.9-1.3c-1.9-5.1-0.4-10.9-3-15.9c-1.1-2-1.6-4.1-1.3-6.3c1.5-11.6,5.4-22.3,13.5-30.9
		c3.9-4.1,8.3-7.6,11.6-12.4c1.6-2.4,2.9-4.9,3.6-7.7c0.7-3.3-0.1-5.8-3.1-7.6c-9.9-5.9-20.4-7.9-31.6-5.1c-4.2,1-6.9,4.6-9.8,7.5
		c-5.6,5.6-8.6,13-12.9,19.6c-1.8,2.7-1.1,5.7,1,7.8c6.7,7,9.1,16.6,14.5,24.3c2.7,3.8,2.9,8.4,3,13c0,4,0.2,8-0.1,11.9
		C402.1,312.6,401.7,314.4,400.2,315.7z"/>
	<path fill="#D3AE37" d="M418.1,313c0.1,0.2,0.1,0.5,0,0.7c-2,4.2-0.8,8.9-0.4,12.9c0.9,9.2-1.6,18.2,0,27.4c1,5.5,2.8,8,8.9,10
		c0.5-1.1-0.3-1.9-0.9-2.7c-8.1-10.5-5.7-22.4,6-28.6c3.5-1.8,7.5-1.2,11.3-1c3.6,0.3,8-0.9,9.7,4.1c0.2,0.5,1,0.9,1.6,1
		c5,0.4,7.6,3.6,7.9,8.2c0.4,6.1,0.9,12.2-5,16.8c-6.1,4.7-12.6,7.8-20.4,7.2c-0.4,1.8,0.7,1.8,1.7,2c6.6,1.4,12.7,4.1,18.9,6.6
		c7.4,2.9,7,10.2,7.1,16.2c0.3,11.4-0.2,22.9-0.7,34.4c-0.2,4.3,1.2,8.5,0.2,12.9c-1.2,5.2-3.7,7.3-9,7c-4.7-0.3-8.2-3.6-8-8.3
		c0.1-4.3-1-8.7,1.4-12.7c0.3-0.5,0.5-1.6,0.2-1.9c-4.5-4.3-2.1-9.7-2.4-14.7c-0.1-1.9-0.8-3.2-2.1-4.3c-2.4-2.1-4-1.5-5.3,1.3
		c-4.9,10.3-9.9,20.6-14.8,30.9c-2.4,5-4,10.1-5.1,15.6c-1.8,9.3-5,18.2-6.8,27.5c-1.1,5.6-0.8,11.5-3.1,17c-1.6,3.6-2,7.7-3.6,11.4
		c-1.9,4.4-6,5.8-10.4,6.3c-8.4-4-10.1-7.5-7.6-16.3c0.7-2.6,0.4-5.2,0.5-7.8c3-14.2,4-28.7,7.3-42.8c0.4-1.5,1.5-3.7-0.7-4.3
		c-1.4-0.4-2.7,1.5-3.1,2.8c-3,10.1-10.4,17.9-14.5,27.4c-2.9,6.8-7,12.9-11,19.1c-1.4,2.1-1.4,4.6-3.5,6.7
		c-4.1,4.2-11.2,4.8-15.4,0.4c-5.3-5.5-4.9-6.9-1.4-13.9c3.3-6.3,6.8-12.5,8.9-19.4c0.5-1.7,1.6-3.3,2.4-4.9
		c1.6-2.2,2.5-4.8,3.9-7.1c2.7-6.3,5.2-12.7,8-19c7.4-16.6,16.4-32.4,22.9-49.3c3.7-9.8,5.6-20.1,5.4-30.6c-0.1-7.8,1-15.5,2.3-23.2
		c1-5.9,0.5-12,0.6-18c1.3-5.8-0.2-11.7,1-17.5c3.8-5,7.4-5.3,11.5-0.9c0.8,0.9,2.1,1,2.8,2C417.4,303.6,416,308.6,418.1,313z"/>
	<path fill="#003049" d="M183.9,587.4c0.5-8.8-0.8-21.6,0.3-34.4c0.1-1.3,0.8-3.4-1.1-3.8c-1.8-0.3-1.8,2.1-1.7,2.9
		c0.1,5.4-3.2,6.4-7.5,6.1c-3.7-0.2-7.1-3.9-7.1-8.2c-0.1-10,0.2-19.9,0-29.9c-0.1-5.2,0.7-10.3,0.2-15.6c-1.1-13.4,9.1-18,22-16.3
		c1.3,0.2,2.5,0.7,3.9,0.6c1.9-0.1,4.4-0.2,5-2.1c0.7-2.2-2.1-1.9-3.3-2.8c-6.1-4.8-10.1-10.6-8.6-18.7c0.6-3.4,2.8-6.3,5.3-8.4
		c9.7-8,19.4-8.8,28.6-0.8c9.7,8.3,8.7,22.4-3.8,29c-1.3,0.7-3.2,0.6-3,2.6c0.3,2.2,2.4,1.3,3.6,1.4c2.1,0,4.2-0.2,6.4-0.5
		c7.6-1.2,14.9,0.1,21,5.3c4.1,3.5,2.4,8.5,2.6,12.6c0.5,13.8,0.4,27.7,0.1,41.5c-0.1,4.2,0,8.8-5.6,10.4c-2.3,0.7-4.2,0.8-6-0.7
		c-3.3-2.7-4.3-1.7-4.3,2.3c0.1,22.2,0,44.3-0.1,66.5c0,8.8-5.1,14.3-12.5,13.7c-6-0.5-9.4-4.2-9.4-10.3c0-15.7,0-31.3,0-47
		c0-1.7,1.1-4.7-2-4.6c-2.6,0.1-1.7,2.8-1.7,4.4c-0.1,15.8-0.1,31.7-0.1,47.5c0,5.9-4.4,9.9-10.8,9.9c-5.7,0-10.2-4.4-10.2-10.1
		C183.9,617.1,183.9,604.3,183.9,587.4z"/>
	<path fill="#003049" d="M273.9,588.9c0.4-9.4-0.8-22.9,0.4-36.3c0.1-1.2,0.7-3.1-1.1-3.3c-1.9-0.3-1.8,2.1-1.8,2.9
		c0.1,5.3-3.2,6.5-7.5,6.1c-4.5-0.4-7.1-3.7-7.1-7.6c0-13.4-1.1-26.9,0.9-40.2c0.1-0.6,0.1-1.3-0.1-1.9
		c-4.4-15.8,8.2-22.3,21.3-20.1c1.3,0.2,2.5,0.7,3.9,0.6c1.9-0.1,4.4-0.2,5-2.1c0.8-2.3-2.1-1.9-3.2-2.8
		c-6.1-4.8-10.1-10.5-8.6-18.7c0.6-3.4,2.8-6.4,5.3-8.4c9.6-8,19.3-8.9,28.6-0.9c9.7,8.3,8.8,22.4-3.7,29c-1.3,0.7-3.2,0.6-3,2.6
		c0.3,2.3,2.3,1.4,3.6,1.4c2.1,0.1,4.2-0.1,6.4-0.5c7.7-1.3,14.9,0.1,21,5.3c4.1,3.5,2.5,8.4,2.6,12.6c0.5,13.8,0.4,27.7,0.1,41.5
		c-0.1,4.2,0.1,8.8-5.5,10.5c-2.3,0.7-4.2,0.9-6.1-0.7c-4.2-3.4-4.3-0.7-4.3,2.7c0,22,0,44-0.1,66c0,8.8-5.1,14.4-12.5,13.8
		c-6-0.5-9.5-4.2-9.5-10.2c0-15.3,0.1-30.7-0.1-46c0-1.9,1.7-5.6-2-5.5c-3.1,0-1.7,3.4-1.8,5.3c-0.1,15.5-0.1,31-0.1,46.5
		c0,6-4.3,9.9-10.8,9.9c-5.7,0-10.3-4.4-10.3-10.1C273.9,617.6,273.9,605.3,273.9,588.9z"/>
	<path fill="#003049" d="M453.5,548.9c-2,0.7-2.1,2.3-2,3c0.1,5.1-2.9,6.7-7.3,6.4c-4.6-0.3-7.2-3.6-7.2-7.5
		c-0.1-13.4-1.1-26.9,0.8-40.2c0.1-0.6,0.3-1.4,0.1-2c-5.3-15.5,9-23.3,21.9-20c0.8,0.2,1.6,0.3,2.5,0.3c2.2,0.1,4.9-0.2,5.6-2
		c1.1-2.5-2.2-2.2-3.4-3.2c-5.9-4.7-9.7-10.3-8.4-18.4c0.6-3.5,2.8-6.5,5.2-8.5c9.7-8.2,19.5-9.2,29-0.9c9.5,8.4,8.4,22.1-3.8,28.8
		c-1.4,0.8-3.7,0.6-3.1,2.9c0.5,2,2.5,1.1,3.8,1.1c2.1,0.1,4.3-0.4,6.4-0.6c7.5-0.5,15-0.3,21,5.5c3.7,3.5,2.3,8.2,2.4,12.2
		c0.5,14,0.3,28,0.1,42c-0.1,4.2-0.1,8.8-5.8,10.3c-2.1,0.5-3.9,0.7-5.6-0.6c-3.6-2.9-4.5-1.8-4.5,2.4c0.1,22-0.1,44,0,66
		c0,4.6-1.3,8.3-4.7,11.6c-3.5,3.3-7.1,3-10.9,1.5c-4.2-1.5-6.7-3.9-6.5-9.2c0.4-15.8,0.2-31.7,0.1-47.5c0-1.6,1-4.3-1.8-4.3
		c-2.8-0.1-2,2.6-2,4.2c-0.1,16-0.1,32-0.1,48c0,5.6-4.4,9.6-10.6,9.6c-5.6,0-10.5-4.2-10.5-9.4c0.1-26-0.7-51.9,0.4-77.9
		C454.4,551.5,454.4,550.2,453.5,548.9z"/>
	<path fill="#003049" d="M612.1,511c0,12.7,0,25.3,0,38c-1,2.6-0.2,5.9-2.9,7.7c-2.8,1.9-5.8,3.3-9.1,0.7c-3.8-3.1-4.1-0.8-4.1,2.6
		c0,19.8,0,39.7,0,59.5c0,2.8,0.2,5.7,0,8.5c-0.8,9.1-8.5,16-18.2,10c-2.5-1.5-3.9-3.6-3.8-6.9c0.2-15.8,0.1-31.7,0-47.5
		c0-1.9,1.4-5.3-1.7-5.3c-3.6,0-2,3.6-2,5.6c-0.2,15.5-0.1,31-0.1,46.5c0,5.6-4.4,9.6-10.5,9.7c-5.6,0-10.5-4.2-10.5-9.3
		c0.1-26-0.6-51.9,0.3-77.9c0-1.3,0.8-3.5-1.3-3.6c-1.5-0.1-1.6,2.2-1.6,3.1c0.2,5.2-3.2,6.1-7.1,5.9c-4.6-0.2-7.3-3.6-7.3-7.4
		c-0.1-13.4-1.1-26.9,0.8-40.2c0.1-0.7,0.3-1.4,0.1-2c-5.5-15.8,9.5-23.3,21.8-20.1c2.2,0.6,4.3,0.6,6.3-0.4c0.8-0.4,2,0,2.1-1.6
		c0-1.4-1.1-1.3-1.9-1.9c-6.3-4.2-11-9.2-10.4-17.8c0.3-4.4,2.6-7.7,5.3-10c9.6-8.3,19.3-9.3,29-0.9c9.6,8.3,8.5,22-3.7,28.8
		c-1.4,0.8-3.8,0.6-3.2,2.9c0.6,2.2,2.9,1.4,4.3,1.2c6.9-1,13.6-1.2,20.4,0.9c3.7,1.2,8,4.4,8.4,8.3
		C611.6,502.4,611.8,506.7,612.1,511z"/>
	<path fill="#DBA45A" d="M388,491.9c0.9,1.7,1.6,3.5,0.8,5.3c-3.8,8.3-1.3,14.4,6.3,18.9c-7.5-1.9-9.4-4.1-8.9-11.5
		C386.3,500.3,386.7,496,388,491.9z"/>
	<path fill="#EEB784" d="M360.9,455.9c-0.4,2.9-1.5,5.4-3.9,7.1C357.7,460.3,358.8,457.8,360.9,455.9z"/>
	<path fill="#3F5F6A" d="M414.7,299.1c0.1-1,0.1-2,0.2-3c3.6,5.2,1.7,11.4,3.2,17c-2-2.6-1.9-5.8-2.2-8.8
		C415.7,302.5,416,300.6,414.7,299.1z"/>
</g>
</svg>
